<svg xmlns="http://www.w3.org/2000/svg" viewBox="0 0 512 640" role="img" aria-label="Meridian — Luxury Real Estate in the Dominican Republic">
<defs>
  <linearGradient id="gold" x1="0" y1="0" x2="1" y2="1"><stop offset="0" stop-color="#F8E7B0"/><stop offset="0.45" stop-color="#D9B24A"/><stop offset="1" stop-color="#A0741B"/></linearGradient>
  <radialGradient id="goldBright" cx="0.5" cy="0.4" r="0.72"><stop offset="0" stop-color="#FFF6D8"/><stop offset="0.5" stop-color="#F2D072"/><stop offset="1" stop-color="#BE8C28"/></radialGradient>
  <linearGradient id="land" x1="0" y1="0" x2="0.4" y2="1"><stop offset="0" stop-color="#6a5a34"/><stop offset="1" stop-color="#241f14"/></linearGradient>
  <radialGradient id="sphere" cx="0.4" cy="0.34" r="0.8"><stop offset="0" stop-color="#2b3340"/><stop offset="0.7" stop-color="#1a212b"/><stop offset="1" stop-color="#10151c"/></radialGradient>
  <filter id="glow" x="-70%" y="-70%" width="240%" height="240%"><feGaussianBlur stdDeviation="5" result="b"/><feMerge><feMergeNode in="b"/><feMergeNode in="SourceGraphic"/></feMerge></filter>
  <clipPath id="globe"><circle cx="256" cy="250" r="204"/></clipPath>
</defs>
  <circle cx="256" cy="250" r="204" fill="url(#sphere)"/>
  <g clip-path="url(#globe)"><path d="M216.2 448.4 L214.6 448.2 L213.1 448.1 L214.7 449 L213.2 448.9 L214.7 449.6 L215.8 449.9 L217.1 450.1 L218.5 450.4 L219.6 450.6 L221.5 451 L222.5 451.2 Z M272.9 453.3 L274.1 453.2 L275.4 453.1 L276.8 452.9 L278.1 452.8 L279.1 452.6 L280.2 452.5 L281.4 452.4 L282.7 452.2 L284.3 452 L285.3 451.8 L287.7 451.5 L289.1 451.3 L290.1 451.1 Z M214.7 449.8 L213.2 449.4 L212 449.1 L210.9 448.8 L210.1 448.5 L210.6 447.9 L212.2 448 L213.2 447.9 L214.7 448 L216 447.9 L217.2 448.2 L216.2 448.4 Z M185.7 435.3 L188.9 436.5 L191.7 437.3 L190.2 437.6 L188.8 436.9 L188 437.5 L186.1 437 L184.4 436.3 L182.5 435.8 L179.4 434.6 L176.8 433.4 L172.5 431.3 L174.2 431.9 L177.7 433.4 L180.5 434.4 L179.8 433.1 L180.7 432.8 L182.1 433.2 L183.6 434 L185.7 435.3 Z M452.4 303.5 L451.5 307.3 L451.1 308.6 L450.6 310.3 L450.3 311.4 L450.7 309.8 L450.3 310.9 L449.7 313.2 L449.2 314.6 L448.8 315.6 L447.9 318.4 L446.4 322.5 L444.5 327.3 L441.7 333.8 L439.6 338.4 L437.6 342.3 L436.8 343.8 L435.5 345.8 L436 343.8 L437.2 341.2 L438 339 L438.8 336.9 L439.9 334.5 L440.5 333.6 L440.9 332.5 L442.2 329.7 L443 327.7 L443.4 326.4 L443.9 324.5 L444.8 321.7 L445.7 319.6 L446.4 317.4 L447.5 315.7 L447.9 314.7 L449.2 311.9 L450.2 309.1 L450.9 307.2 L451.1 305.9 L452.2 303.1 L452.6 301.1 L453.2 299.3 L453 300.4 L452.8 301.6 L452.4 303.5 Z M118.9 227.7 L118.1 228.1 L116.9 227.2 L115.8 225.5 L116.3 224.8 L117.8 225.1 L119.4 225.9 L120.5 227.1 L120.7 228.1 L118.9 227.7 Z M131.2 223.5 L133.3 224.6 L135.8 224.5 L137.1 225.8 L138.1 227.2 L139.5 227.4 L139.2 228.4 L140.4 228.8 L141.5 230.4 L140.2 231.6 L139.1 230.5 L137.8 230.4 L137 230.1 L135.3 230.6 L135.1 229.7 L134.1 230 L132.6 232.1 L132 231.4 L130.5 229.4 L129.2 229.4 L127.7 228.7 L126.4 229.1 L125.3 227.7 L125.8 226.6 L128 227.7 L129.8 228.4 L130.9 227.8 L130.1 226.1 L130.4 224.7 L128.9 223.8 L129.7 223 L131.2 223.5 Z M116.9 209 L117.4 210.5 L119.6 210.8 L120.2 211.8 L121.6 214.5 L122.6 216.4 L124.7 217.7 L124.3 218.6 L126 219.2 L127.5 221.1 L127 221.8 L125.3 221.9 L123.6 221.6 L122 220.9 L118.5 220.3 L120.6 218.8 L119.9 217.6 L118.4 217 L117.9 215.8 L117.9 213.7 L116.6 213.4 L114.8 211.9 L114.3 210.9 L111.7 209.5 L111.1 208.6 L112.2 208 L110.2 207.2 L108.2 208.4 L107.3 208.2 L106.8 208.9 L105.6 208.9 L104.9 208.3 L106.3 207.6 L107.1 206.6 L108.2 206.1 L109.5 205.8 L111.2 206 L113.5 206.7 L115.2 207.2 L116.9 209 Z M408.1 153.8 L408.1 155.6 L408.7 156.3 L408.2 158.3 L406.3 157.2 L406.7 155.9 L407.6 155.4 L408.1 153.8 Z M392.8 161.3 L394.3 162 L395.5 161.3 L396.7 161 L397.6 160.8 L398 161.8 L395.8 163 L393.3 162.7 L392.8 161.3 Z M374.2 158.5 L374.8 161.1 L375.5 162 L375.9 163.7 L373.9 163 L372.7 162.9 L369.1 162.1 L368.6 160.4 L371.1 160.1 L372.9 159.2 L374.2 158.5 Z M357.1 152.6 L359.4 154.5 L361.1 158.7 L359.7 160 L358.6 159.3 L356.7 155.6 L355.4 153.9 L356.6 153.8 L357.1 152.6 Z M356.3 149.6 L356.9 152.1 L355.7 151.7 L354.1 149.8 L354 148.5 L354.6 147.1 L356.3 149.6 Z M182.4 140.6 L183.7 141.2 L185.7 141.4 L184.1 142.5 L181.1 140.8 L182.3 139 L182.4 140.6 Z M189.6 133.7 L186.5 132.3 L185.3 130.6 L188.3 131.6 L189.8 133.2 Z M120.9 102.1 L122 100 L123 99.1 L124.1 97.7 L124.9 97 L125.6 96 L127.2 94.6 L126.4 96 L126 96.8 L125 97.7 L123.6 99.1 L122.4 100.6 L120.9 102.1 Z M203.2 130.8 L200.8 133.1 L202.5 132.3 L203.7 133.1 L202.6 134 L204.2 135.1 L205.4 134.5 L207.2 135.6 L205.8 137.7 L207.5 137.3 L207.3 138.9 L207.4 140.9 L205.7 143.4 L203.3 142.7 L204.6 140.3 L200.6 142.1 L199.3 141.9 L201.4 140.6 L199.5 139.7 L197.1 139.5 L193 138.9 L194.8 137.1 L194.2 136.2 L196.7 134.7 L200.7 130.4 L202.6 128.9 L204.8 128.2 L203.2 130.8 Z M138.3 85.1 L135.1 87.5 L132.5 89.6 L134.2 88.1 L135.6 87 L136.7 86.1 L138 85.2 L138.8 84.6 Z M309.2 126.1 L306.3 128.2 L303.3 128.1 L303.8 125 L301.7 122.3 L303.4 119.8 L304.2 118.4 L305.7 118.1 L308.5 119.5 L308.4 121.5 L309.6 123.4 L309.2 126.1 Z M337 110.8 L337.8 113 L335.1 112 L334.1 111 L335.5 109.6 L337 110.8 Z M307.5 108.2 L307.3 111.2 L308.8 110.6 L310.6 110.3 L311.4 112.5 L311.1 115 L313 114.9 L316.6 118 L318.1 118.3 L320.9 121.1 L322 122.1 L324.5 122.3 L325.3 124 L324.8 125 L326.3 126.3 L325.4 128.1 L322.9 128.5 L319.9 129.8 L318.7 129.4 L318 130.9 L316 130.9 L315.1 132.2 L313.7 131.7 L315.4 128.3 L316.9 127.5 L313.6 127.5 L312.5 126.4 L314.1 125.3 L312.4 123.9 L311.9 122.1 L314.8 121.9 L314.3 120.3 L312.1 118.8 L309.7 118.6 L308.9 118 L308.9 116.7 L308 116 L307.6 117.4 L306.3 114.9 L304.7 113.7 L304 110.9 L304.2 108.7 L305.6 108.7 L307.5 108.2 Z M188.7 85.2 L187.7 86.2 L188.6 86 L188.6 87.8 L189 88.8 L187.9 89.8 L188.8 90.8 L187.1 91.2 L186.1 90.1 L186.6 89 L184.3 89.8 L181.7 90.3 L182.8 89 L181.3 88.7 L183.4 88 L185.6 86.5 L188.3 84.8 Z M280.5 91.6 L280.8 93.1 L283.1 94.5 L281.9 96.5 L278.2 98.4 L277 98.9 L274.9 98.7 L270.4 98.2 L271.6 97.1 L268.1 96.1 L270.7 95.5 L267.2 94.4 L267.9 92.9 L270 92.5 L272.6 93.9 L274.4 92.5 L276.4 93 L278.2 91.7 L280.5 91.6 Z M195 76.6 L192.1 78.3 L195.3 77.4 L194.3 78.9 L192.1 80.1 L191 81.6 L193.7 80.6 L196.6 79.3 L199.6 77.4 L200.4 77.9 L201.2 78.5 L201 79.8 L199.8 80.7 L197.8 81.5 L197.1 82.7 L195.8 83.6 L192.3 84.3 L190.6 84.2 L189 84.2 L185.9 85.5 L184.5 86.2 L181.7 87.2 L180.3 86.8 L178.5 87.3 L176.7 88.6 L175.4 88.4 L172.2 89.5 L168.2 91.4 L165.7 92.9 L162.5 95.3 L163.3 96.3 L161.3 98.6 L159.7 100.5 L161.6 100.7 L162.4 102.5 L162.5 103.9 L162.2 105.3 L163 106.5 L163.2 108 L165.2 108.9 L166.3 109.6 L164.2 111.7 L162.4 114.4 L161 117.6 L161.2 120.8 L163 120.3 L165.9 117.8 L168.4 113.5 L168.6 111.9 L171.8 111.3 L174.9 110 L177.1 108.5 L178.4 106.8 L179.3 104.5 L179.3 102.3 L183.1 100.3 L184.6 98.1 L187.7 94.5 L189 94.2 L190.4 95.3 L191.5 95.9 L193 95.5 L193.5 96.6 L193.9 98.3 L193.5 99.2 L195.8 99.9 L194.2 101.9 L192.3 105.1 L193.3 105.7 L193.4 107.4 L196.5 106.4 L199.9 104 L201.6 103.1 L201.3 105.4 L201.4 109 L201.4 112.3 L199.8 113.8 L201.3 115.7 L202.1 117.4 L204.7 118.5 L205.5 119.5 L205.2 121.9 L206.5 122.5 L206.9 123.6 L205.7 126.8 L203.8 127.6 L202 128.5 L198.2 129 L194.7 131 L191.1 130.9 L187.2 129.7 L184.3 129.1 L182.3 129 L179.6 130.7 L176.5 131.5 L171.6 134.7 L168 136.9 L169.8 136.7 L175 133.6 L180.3 132 L183.3 132.3 L184.4 134 L181.5 135.6 L180.6 138.8 L180.2 141.2 L182.3 143.1 L186 143.3 L189.6 140.3 L188.8 142.4 L189.8 143.7 L186.3 145.3 L180.7 146.3 L178.1 147.2 L174.7 148.9 L173.2 148.4 L174.2 145.8 L179 144 L175.6 143.5 L173.2 143.4 L173.1 144.5 L170.2 145.5 L167.5 146.1 L164.9 146.6 L162.8 148.3 L161.5 150.3 L161.3 152.1 L162.2 152.4 L162.5 151.2 L162.8 152 L162.2 152.8 L160.6 153 L159.6 152.8 L157.8 152.9 L155.6 152.8 L153.5 153.2 L156.7 153.4 L153.7 154.3 L152.4 154 L151.6 154.4 L150.6 156.8 L148 158.8 L147.9 157.7 L147.6 156.7 L147.2 158.5 L146.9 160.4 L145.6 161.4 L143.3 163.6 L144.8 161.5 L144.4 160 L145.4 157.4 L144.4 158.6 L143.8 160.7 L142.8 159.9 L143.6 161.2 L142.2 164.3 L142.4 165.8 L141.3 169 L138.9 171.1 L136.3 171.4 L134.1 172.9 L133 172.8 L131.5 173.7 L130.7 174.7 L127.6 176.2 L125.7 177.3 L124 179 L122.7 181.2 L122.1 183.6 L121.6 186.6 L121.6 189.2 L121.1 190.7 L120.7 194.9 L119.8 197.1 L119.2 198.4 L118 200.3 L116.3 199.8 L116.5 198.2 L116 197.2 L115.9 193.9 L116 191.1 L116.2 189.7 L117.4 187.6 L117.6 185.6 L117.2 182.3 L116.7 181.6 L114.2 182.4 L113.7 180.2 L112.9 179 L110.8 178.6 L109.4 177.6 L108 177.3 L107 178.5 L106.4 179.8 L105.9 180.9 L105.5 180.2 L104.6 180.5 L103.5 179.9 L103.1 177.6 L101.5 177.4 L100.8 176.1 L99.8 175.8 L98.2 176 L95.8 177.6 L93.8 178.2 L92.3 179.4 L91.3 180.6 L90.3 182.8 L89.7 184.4 L89.5 185.7 L87.7 188.3 L86.5 190.5 L84.7 194.8 L83.9 196.4 L83.5 198.3 L83.3 200.2 L82.7 203 L82.8 206 L82.5 208.1 L82.6 210.1 L83.9 211.9 L84.2 213.7 L85.8 213.4 L87.2 213.7 L88.6 213.7 L89.8 213.6 L91.3 212.8 L92.4 211 L93.4 208.2 L94 207.3 L95.5 207 L97.6 207 L99.2 207.8 L100.5 208 L100.7 208.9 L100.1 210.5 L98.5 212.1 L97.4 214 L96.9 216.1 L95.7 218.5 L95.5 217.5 L95 218.9 L94.3 220.3 L93.8 222 L93.2 224.1 L92.6 224.8 L91.6 225.8 L92 226.7 L92.9 227.2 L94.1 226.9 L95.4 227.9 L97 228 L98.4 228.5 L100.3 229.3 L101.1 230.4 L101.5 231.4 L102.2 232.2 L102.5 233.3 L102 234.3 L102 235.7 L101.3 236.7 L100.8 238 L100.4 239.5 L100.1 242 L99.3 243.7 L98.7 245.4 L98.9 247 L99.2 249.1 L99.8 250.8 L100.7 252.6 L101.3 254.2 L102.1 255.3 L102.8 256.2 L104 256.3 L105.1 255.7 L106.6 255.5 L107.5 254.7 L108.8 255.3 L110 256.1 L111 257 L111.7 258.3 L112.5 259.5 L113.8 260 L115.9 258 L117 257.9 L117.2 256.8 L118 254 L119.7 252.7 L121.3 253.1 L123.6 253.2 L125.9 251.9 L127.1 251.4 L128.6 250 L129.5 250.4 L130.1 251.5 L129.4 252.6 L127.6 253.4 L128.3 255.2 L128 257 L126.6 258.8 L127.3 261.8 L128.5 261.8 L129.4 259.4 L128.7 258 L128.9 255.3 L132.4 254.7 L132.3 252.9 L133.4 252 L134.1 254.7 L136 255.2 L137.6 257.5 L137.6 258.7 L140.1 259.2 L143.2 259.5 L144.7 261.3 L146.9 262.2 L148.7 261.4 L152.5 260.9 L156.1 261.4 L153.5 262.1 L154.4 263.9 L156.8 264.5 L158.9 266.6 L159.2 269.5 L160.8 269.7 L162 270.7 L164 272.3 L165.8 274.8 L165.8 276.7 L167 276.9 L168.6 278.8 L169.8 280.2 L173.6 281.4 L176.6 280.9 L180.1 282.2 L181.2 282.7 L183.6 283.8 L187 287.1 L187.6 288.6 L188.7 288.5 L189.5 290.6 L191.3 296.8 L193.1 297.5 L193.2 299.9 L190.6 302.5 L191.6 303.6 L197.7 304.7 L197.8 308.1 L200.4 306.1 L204.7 307.6 L210.5 310.1 L212.2 312.2 L211.6 314 L215.6 313.2 L222.5 315.4 L227.7 315.4 L233 318.4 L237.5 322.3 L240.2 323.3 L243.3 323.5 L244.5 324.6 L245.8 328.8 L246.4 330.8 L245 336.1 L243.2 338.2 L238.4 342.5 L236.3 346 L233.8 348.7 L232 351 L232.5 356.7 L231.7 361.3 L231.4 363.3 L230.4 364.4 L230 368.3 L226.9 371.9 L226.6 374.8 L224 375.9 L223.4 377.5 L219.9 377.3 L215 378.1 L212.9 379.2 L209.5 379.7 L206.1 381.6 L203.9 384.1 L203.8 386 L204.5 387.5 L204.4 390.1 L204 391.3 L202.2 392.5 L199.9 396.6 L197.9 398.3 L196.3 399.2 L195.6 401.4 L194.2 402.5 L193.5 403.9 L190.8 404.8 L188.7 404.1 L187.3 404.2 L184.5 402.9 L182.7 402.7 L180.7 401.2 L180.9 402.4 L185 404.8 L185.3 406.3 L187.3 407.5 L187.6 408.6 L186.3 411 L183.2 411.7 L178.5 411.4 L175.7 410.8 L176.9 412.1 L177.3 413.6 L178.3 414.7 L177.3 415.2 L175.1 415.1 L172.5 413.9 L173.6 416.4 L175.4 417.2 L176.3 416.8 L177.6 418 L175.9 418.2 L175 419.1 L176.1 421 L174.3 421.5 L173.5 422.1 L174 423.4 L177.1 425 L179.3 425.8 L179.9 427.2 L178.4 427.7 L179.1 429.3 L178 429.6 L180.4 431.9 L182.5 433 L180.1 432.4 L178.8 432.8 L180.2 434.1 L177.2 433.1 L174 431.6 L170.9 430.3 L169.2 429.2 L168.6 428.4 L166.5 427.1 L163.1 424.1 L162.1 422.7 L162.6 421.7 L159.3 420.5 L159.5 419.3 L157.3 416.3 L160 417.5 L157.7 413.7 L156 412.8 L157.3 415.2 L155.9 414.6 L154.2 411.8 L152 408.1 L151.9 406.8 L149.9 404.5 L148.1 402 L148 398.7 L147.5 395.2 L146.6 391.8 L144.3 387.9 L144 385.9 L142.4 382.7 L142.5 379.7 L141 374.6 L139.9 369 L138.8 362.7 L137.4 357.9 L135.8 353.6 L132.8 351.3 L132.3 350 L126.4 345.7 L121.2 341.2 L118.9 338.7 L117.3 335.8 L117.6 335 L114.8 330.3 L111.4 323.7 L108.3 316.5 L107.2 314.7 L106.2 312.1 L104.1 309.3 L102.3 307.5 L103 306.2 L101.6 302.7 L102.2 300.5 L103.9 299 L105.1 296.8 L104.5 295.2 L103.7 296.5 L102.2 294.6 L102.7 293.8 L102.2 290.6 L103 290.3 L103.5 288.3 L104.4 286.4 L104.2 284.9 L105.5 284.6 L107.2 283.7 L106.9 282.6 L107.7 280.8 L108.4 279.7 L109.6 279.8 L110.7 278 L111.8 276.4 L110.9 275.3 L111.5 273.5 L111.1 270.1 L111.7 269.4 L111.5 266.3 L110.7 264.2 L110 262.9 L109.7 260.9 L110.4 260.1 L109.4 258.4 L108.4 257.1 L107.3 257 L106.7 258.1 L105.6 258.7 L104.8 259.3 L105.7 261.5 L104.6 262.2 L103.5 262 L103.3 259.8 L102.2 259.9 L101.9 258.3 L101 257.8 L100.5 257.2 L99.5 256.9 L98.1 255.8 L97.7 254.9 L98 253.6 L97.5 252.6 L96.8 251.6 L96.1 250.9 L95.6 249 L95.1 250.7 L94.8 249.6 L94.1 249 L94.1 247.1 L94.6 246.1 L94.1 245.4 L94.1 243.6 L93.4 241.8 L93.1 240.5 L92.5 239.1 L91.8 237.1 L92.4 235.9 L90.4 235.6 L89.8 235 L89.1 233.9 L88.1 233.3 L87.8 232.3 L87 231.3 L85.9 230.7 L85.2 229.7 L84.6 227.8 L83.6 223.2 L83 221.6 L81.9 220.1 L81 219.8 L79.5 220.4 L77.8 218.8 L76.9 217.6 L76.1 215.2 L75.2 214.1 L74.2 211.5 L73.7 209.2 L73.7 208 L73.1 207.4 L72.3 205.4 L72.4 203.5 L71.9 200.7 L72.1 198.1 L72.5 196.3 L73.2 195.2 L74.1 193.5 L74.4 191.7 L74.8 190.3 L75.2 188.4 L75.7 184.4 L76 181 L76.5 178.6 L76.5 176.5 L76.8 175.6 L77.8 173.8 L77.8 172.6 L78.2 170.5 L79.2 168.2 L79.5 165.3 L80.1 163.4 L80.6 162.4 L81.6 159.7 L82.8 157 L83.5 155.9 L83.9 154.1 L84 152.7 L83.2 153.8 L82.4 155.3 L81.1 157.7 L80.5 159.2 L79.6 161.9 L79.3 162.8 L78.7 164.3 L77.9 166.6 L77.6 167.6 L77.1 168.9 L76.7 171.1 L75.4 174.3 L75 175.9 L74.4 177.7 L73.7 179.4 L73.6 181.7 L73.2 183.5 L72.2 184.9 L72.7 182.5 L73.1 180.1 L73.4 177.9 L73.4 176.6 L74.5 174.4 L75.3 172.5 L75.5 171.1 L75.9 169.1 L76 167.1 L76.7 164.8 L77.7 164.3 L78.5 163 L79.4 160.1 L79.7 158.8 L80.7 156.6 L81.7 154.3 L83.1 151.5 L84.6 148.6 L85.6 146.9 L86.6 144.7 L87.2 143.1 L87.7 141.4 L88.1 139.7 L89.3 138.1 L91.3 134.5 L94.3 130.1 L95.5 128.2 L97.4 125.4 L99.3 123.2 L100.6 121.3 L102.5 119.4 L104.5 117.2 L106.4 115 L108.6 113 L113.2 108.8 L116.6 105.5 L118.9 103.3 L120.1 102.1 L119.6 103.4 L117.1 106 L117.8 105.5 L120 103.5 L122.2 101.5 L125 98 L126.3 96.6 L127.7 94.6 L130.3 92.4 L132 91.3 L133.5 89.7 L135.8 88 L138.2 85.9 L139.7 84.9 L141 83.9 L142.2 82.9 L144.8 81.2 L147.7 79.1 L150.7 77.3 L152 75.8 L153.4 74.8 L157.6 72.2 L158.7 71.5 L160.7 70.2 L161.4 69.7 L164.1 68.2 L166.1 67.1 L164.3 67.9 Z M192.4 56.2 L194.7 55.4 L196.8 54.8 L198.7 54.2 L200.6 53.7 L202.6 53.1 L201.9 53.9 L200.8 54.5 L199 55 L198.1 55.5 L196.1 56.2 L193.7 57.3 L192.5 57.9 L191.7 58.2 L190 59.3 L189.1 59.7 L187.6 60.6 L185.5 61.5 L186.6 62 L185.9 62.6 L187.5 62.9 L186 63.6 L188.2 63.2 L184.6 65.1 L186.8 64.7 L184.3 65.7 L185.7 65.7 L184.2 67.2 L183.1 68.5 L182.7 69.2 L181.6 70.6 L179.8 70.8 L179.4 71.7 L180.4 72.6 L179.6 73.9 L181.6 73.5 L182.6 72.5 L183.9 72.2 L185 72.7 L184.6 73.4 L183.2 74.5 L184 74.8 L183.4 76.1 L184.6 76.4 L185.3 77 L187.1 75.9 L188 77 L185.1 78.6 L187.9 77.4 L191.5 76.2 L192.7 74.9 L193.3 73.9 L196.7 72.2 L199.5 71.5 L198.9 73 L196.4 75.2 L194.5 75.7 L195 76.6 Z M197.3 64.6 L195.7 65 L197 65.3 L195.6 66.3 L197.5 66 L196.7 66.6 L193.6 68.1 L195.1 67.7 L198.3 66.2 L197.8 67.6 L194.8 69.1 L192.6 70.1 L191.7 71.3 L190.9 72.6 L189.5 73.2 L188.6 72.8 L187.6 73.6 L186.3 74.1 L186.1 73.2 L186.3 72.2 L184.1 71.8 L182.7 71 L183.7 69.8 L184.3 68.9 L186.3 67.3 L187.5 67.7 L188.4 68.4 L188.8 67.5 L188.2 66.4 L189.4 65.8 L191 66.1 L191.5 64.8 L194.1 64.2 L195.5 64 L197.8 64.1 Z M207.8 71.8 L206.6 72.9 L209.4 71.9 L212.1 71.8 L210.5 73.8 L208.8 74.9 L210.9 74.8 L212.6 74.3 L213.1 75.7 L212.2 77.6 L214.3 77.6 L213.9 78.9 L215.3 80.1 L214.5 83.1 L211.6 83.6 L212.9 85.4 L214.3 86.2 L214.3 88.4 L216.1 88.8 L214.6 90.3 L210.4 92.4 L209.6 91.2 L209.5 88.8 L207.7 88.8 L206.5 90 L206.6 91.5 L207.5 92.8 L206.7 95.9 L205 97.4 L203.7 96.5 L202 94.1 L202.2 96.4 L202.5 98 L202.1 98.9 L199.2 97.2 L197.5 95.3 L197 93.9 L198 93.4 L197.3 91.8 L196.7 90.4 L196.1 91 L192.5 90.5 L194.8 88.2 L196.8 88.7 L199.3 89 L199.8 88.2 L201.2 87.2 L204.7 85.6 L205.3 84.6 L205.3 82.6 L204.2 81.4 L205.3 81.1 L205.9 79.7 L205.4 78.6 L204.2 79 L202.4 78.7 L200.2 77.4 L199.5 76.3 L198.8 75.6 L199.3 74.8 L201.3 74.3 L200.4 74 L203.1 72.3 L206.1 71.1 L207.8 70.8 L210.1 70.9 L207.8 71.8 Z M203.2 67.4 L204.1 68.3 L203.3 68.7 L201.5 69.2 L200.8 70.2 L198 71.4 L196 71.5 L196.7 70.4 L198.2 68.6 L199.2 68.2 L199.6 68.9 L201.3 67.7 L203.2 67.4 Z M203.1 70.7 L200.3 71.5 L202.2 69.8 L203.7 69.1 L205.3 68.6 L206.5 68.5 L207.4 69 L204.2 70.7 Z M191 64.6 L189.3 64.3 L190.8 63.7 L192.7 62.4 L193.7 62.2 L196.5 61.6 L198.7 61.3 L200.8 60.5 L201.3 61.2 L200.6 61.8 L199.7 63.1 L198.3 63.8 L194.8 63.8 L192.4 64.2 L191 64.6 Z M213 64.3 L211.8 65 L210.2 65.6 L207.7 66.5 L206.8 66.2 L208.8 65.1 L210.6 63.9 L212.3 64.1 Z M208.7 62.8 L207.6 63.2 L208.5 63.5 L206.9 64.1 L205.2 64.5 L203.9 63.8 L202 63.7 L202.8 62.9 L204.6 63 L203.6 62 L207.6 60.9 L208.6 60.8 L207.8 61.8 L206.1 62.8 L209.1 62 L210.5 61.9 L208.7 62.8 Z M323.4 65.1 L323 66.2 L321.5 65.8 L320.4 66.1 L318.6 65.5 L318 64.9 L316.1 64.3 L313.4 62.8 L310 61.5 L308.5 61.1 L306.7 60.1 L304.4 58.8 L303.5 57.9 L302.1 57.2 L301.4 56.7 L302.6 56.8 L303.8 57.2 L305.9 58.3 L307.8 59.5 L311.2 61.1 L314.5 62.4 L317.7 63.9 L320.5 64.7 L323.4 65.1 Z M215.5 64.6 L215 65.2 L215.8 65.6 L215.1 66.2 L213.9 66.6 L213.4 67.6 L214.4 68.4 L215.9 68.4 L217.2 68.6 L217.9 69 L217.6 69.8 L216.7 70.5 L215.6 70.8 L214.1 70.8 L211.6 70 L210.4 69.6 L209.6 68 L211.1 67.2 L212.5 66.5 L213.4 65.7 L213.6 64.5 L215 64.1 Z M286.2 49.4 L284.2 48.8 L285 48.5 L286.4 48.7 L289.5 49.2 L290.7 49.4 L289.4 49 L288.3 48.8 L286.6 48.5 L284.1 48 L281.1 47.6 L279.9 47.4 L278.2 47.2 L276.7 47.1 Z M439.3 160.6 L439.9 162.1 L440.4 163.8 L440 164.8 L437.8 162 L437.7 163.1 L438.3 165.4 L436 164 L433.4 161.6 L430.7 158.2 L429.9 158.7 L430.4 160.2 L430.9 161.7 L431.2 162.5 L432.7 164.5 L434.3 166.8 L435.6 168.1 L436.6 168.8 L437.2 170 L437.7 171.1 L438.3 172.1 L439.4 173.6 L439.8 174.3 L438.7 172 L438 170.2 L439.4 172.1 L440.2 174.2 L440.8 175.2 L441.3 174.5 L441.7 173.4 L440.9 170.7 L440 168 L439.2 165.6 L438.7 164.3 L439.4 165.8 L440.9 168.8 L442 170.5 L442.5 171.2 L443.8 172.3 L444.2 173.1 L444.6 173.9 L445.5 176.1 L445.8 177.2 L446.3 178.6 L447.2 181.1 L447.4 182.3 L448 184.1 L448.8 186.1 L449.3 188.8 L449.9 190.5 L450.1 191.4 L450.2 193.2 L450.6 194.5 L450.8 195.8 L450.8 197.8 L450.8 200 L451.2 201.6 L451.5 202.8 L451.5 205.1 L451.2 208.2 L451.3 211.4 L450.9 212.1 L450.9 214 L450.6 215.3 L450.1 216.2 L450 217.7 L449.9 219.2 L449.3 220.4 L448.7 220.9 L448 219.1 L447.6 217.2 L447.2 216.4 L446.4 214.1 L445.8 212.9 L445.4 211.2 L444.9 209 L444.4 207.7 L443.8 206.9 L443.3 205.7 L442.4 204.9 L441 202.6 L439.9 200.1 L438.4 198.5 L435.9 195.7 L434.9 193.5 L434.2 191.6 L432.1 188.4 L431 187.5 L429 185.7 L427.7 183.5 L427 183 L425.5 180.9 L423.5 178.8 L421.9 177 L420.6 175.6 L420.1 174.4 L419.6 173 L420.6 176.7 L421 178.6 L418.8 177.5 L415.6 173.4 L417.8 176.9 L420.2 179.6 L423.4 184 L424.7 185.5 L425.9 187.1 L428.5 190 L429.4 192.8 L432 194.8 L434 198.3 L435.3 202.4 L437.1 206.1 L437.8 206.6 L438.8 207.3 L440.6 210.7 L441.8 213.6 L442.8 214.7 L445.1 216.7 L446.1 218.1 L447.1 219.6 L447.6 220.4 L448.3 221 L448.7 221.8 L449 223.3 L448.7 224.6 L449.7 225.5 L450.1 226.7 L450.8 227.7 L451.7 225.5 L452.5 224.1 L452.8 222.2 L453.2 220.5 L453.6 219.5 L454 217.7 L453.9 216.1 L454.7 218.7 L455 220.5 L455.2 221.9 L455.7 225.8 L456 230.1 L456.3 235.1 L456.4 240.9 L456.2 245.6 L455.7 251.4 L455.1 255.1 L454 259.9 L453.2 263.4 L452.1 268.6 L451.8 270.6 L451.6 271.6 L450.8 273.7 L450.5 275.3 L449.8 278.4 L449.4 280.1 L449 282.6 L448.5 284 L447.6 288.6 L447.4 290.5 L448 291.1 L447.4 294.2 L447 296.9 L447.1 298.6 L447 301.5 L447.1 303.3 L446.4 306.6 L445.9 309.4 L444.7 314.4 L444.5 315.8 L443.5 318.4 L442.5 321 L441.2 323.5 L439.8 325.6 L438 328.1 L435.6 332.5 L434.9 333.4 L433.2 336.2 L432.4 337.2 L431.5 339.5 L431.2 341.4 L430.8 343 L430.4 343.9 L429.4 346.6 L428.6 348.1 L428 349.8 L427 351.2 L425.4 352.9 L423.1 355.4 L422 356.9 L421.5 358 L420.9 359.6 L419.5 361.9 L418.1 364.3 L417 365.8 L415.3 367.7 L414.8 368.3 L413.4 370 L412.2 371.6 L410.2 374 L406.9 377.5 L404.9 379.6 L403 381.4 L400.7 383.1 L399.8 383.6 L399.2 384.4 L397.3 385.2 L395.9 385.5 L394.7 386.2 L391.6 388 L389.8 389 L388.1 390.3 L387.3 390.6 L386.5 390.2 L386.2 389.1 L387.1 387.7 L387.5 386.2 L388.4 385.5 L389.4 383.6 L389.5 381.5 L389.6 379.6 L389.9 376.6 L389.2 375.1 L389.3 373.3 L389.9 370.8 L390.2 368.9 L391.1 364.8 L392.3 361.3 L392.5 359.8 L392 358.9 L391.6 356.8 L391.4 353.6 L391.4 351.8 L390.2 349.4 L390.6 347.1 L390.9 345.2 L391.8 342.4 L393.3 339.4 L393.7 338 L395 334.9 L395.8 333.5 L397.6 331 L398.6 329.4 L399.3 326.9 L399.4 325.1 L398.8 324.2 L398.5 322.4 L398.1 320.6 L399.2 318.4 L398.8 315.4 L398.5 313.3 L397.4 311.5 L397.5 309.9 L396.9 307.6 L395 304.6 L392.5 301.8 L390.8 299.5 L389.3 296.4 L389.4 295.2 L390 294 L390.6 291.3 L391.1 288.7 L391.5 284.2 L391.8 281.3 L390.6 279.3 L389.4 279 L388.8 277.6 L388 277.3 L385.3 278.2 L384.2 278.3 L383.2 279.3 L381 279.7 L379.3 277.8 L378.3 275.5 L376.1 273.6 L374 274.1 L371.4 274.6 L369 275.4 L366.7 276.6 L362.1 279.5 L360.5 281 L357.8 282.4 L355 281.9 L353.6 282.1 L351.4 281.7 L349.3 282.1 L345.6 283.2 L343.4 284.5 L340.3 286.2 L338.8 286.3 L335.4 285.1 L332.3 282.7 L329.5 281.1 L327.1 279.1 L326.2 278.9 L323.8 277.8 L322 276 L321.3 274.8 L320.8 272.3 L319.2 270.3 L317.9 269 L317 268.7 L316.1 268 L315.6 266.5 L315.1 265.8 L314.1 265.3 L312.2 263.9 L310.8 263.8 L310 262.9 L308.9 261.7 L307.9 258.2 L308.3 256.6 L306.7 254 L305 252.8 L306.4 252 L307.8 249.4 L308.5 247.5 L308.1 245.7 L308.8 243.8 L309 240.5 L308.3 237 L307.8 235.3 L307.9 233.5 L306.9 231.8 L305.1 230.4 L305.1 228.9 L305.1 227.3 L306.2 226.2 L307.1 224.3 L306.7 223.2 L307.5 220.6 L309 218.2 L310 217.6 L310.6 215.5 L310.4 213.6 L311.2 211.3 L313 209.9 L314.4 206.2 L315.8 204.6 L318.4 204 L320.3 201.4 L321.6 200.3 L323.5 197.2 L321.9 193 L322.4 190 L322.3 188.2 L323.6 185.7 L326 183.8 L327.6 182.2 L328.5 178.5 L328.7 176.4 L330.7 176.1 L332.6 177.3 L335 176.7 L337.8 177.1 L339 176.9 L340.8 174.7 L343.3 173.7 L344.3 172.1 L346.3 170.7 L350.1 169.4 L353.8 168.4 L355.1 168.6 L356.7 166.9 L359.1 166.3 L360.3 166.9 L361.7 166.3 L363.5 164.5 L365.1 164.5 L365.8 166.1 L367 164.5 L367.1 166.9 L367.8 168.4 L368.9 169 L369.8 171.9 L369.1 173.8 L370.2 175.5 L371.3 175.3 L372.5 176.7 L373.6 177 L376.5 177.4 L377.3 176.9 L379.3 176.9 L382.7 177.6 L384.8 180.2 L386.9 180.3 L390.3 180.7 L393.1 181.7 L393.7 180.5 L393.9 178.7 L392.4 176.4 L392.2 174.6 L392.8 172.6 L393.9 171.7 L396.5 171.5 L397.8 172.7 L399.3 172.7 L401.1 172.4 L402 173.3 L404.2 172.3 L406.1 172.5 L408.1 172.7 L409.6 171.3 L409.8 170.1 L410.9 169.1 L412 169 L413.2 170.4 L413 169.2 L414.4 169.3 L415.5 168.9 L415.7 167.7 L415.5 166.5 L414.8 164.7 L413.7 162.2 L413.5 161.2 L412.4 158.5 L411.7 156 L410.1 153.6 L409.5 152.2 L408.3 151.1 L407.9 149.7 L407.4 150.4 L406.1 150.3 L406.4 152.6 L404.8 154 L402.7 153 L401.3 153.6 L401.8 155 L401 155.9 L398.7 154.9 L397.2 155.7 L394.5 153.1 L392.4 151.9 L391.6 149.3 L389.8 148.3 L389.5 144.7 L391.5 143.6 L390.5 141.1 L393.2 140.3 L393.2 137.6 L393.9 136.1 L395.6 134.9 L398.9 135.7 L401.1 135.8 L401.8 134.5 L402.7 134.2 L402.5 131.9 L401.6 130.6 L399.8 128.9 L398.6 128.3 L396.8 127.8 L393.8 126.4 L392 126.2 L389.8 125.1 L390.1 124.3 L388.8 121.5 L387.3 120.8 L387.6 118.9 L387 118.3 L386.7 119.3 L386.2 120 L386.4 121.3 L385.7 122 L385.8 123.5 L387.3 125.1 L388.3 125.4 L389.1 124.6 L389.8 125.7 L389.2 126.9 L389.1 129.3 L388.1 129.1 L387.2 127.7 L385.4 127.6 L385.4 125.5 L384.6 125 L382.3 125.3 L381.4 124.4 L380.6 125.3 L381.5 127 L382.2 129.4 L382.8 130.1 L382.2 131 L384.4 134.5 L384.6 136 L385.7 138.2 L387.3 139.7 L388.2 140.7 L390 141.1 L390.3 141.9 L388.8 142.8 L388.9 144 L388.7 146.1 L387.4 144.9 L386.1 144.6 L383.8 146.2 L385.9 147.4 L385.5 148.2 L384.6 148.6 L382.8 147.4 L384.4 149.8 L386.1 150.9 L385.9 151.8 L387.6 152.8 L388.9 153.4 L390 155.1 L388 154.9 L389.4 156.2 L388.6 157 L390.7 159.4 L389.6 159.9 L387.5 159.1 L385.5 156.8 L384 154.9 L382.6 153.8 L380.7 152.3 L380.1 151.5 L379.2 150.7 L377.7 150.1 L376.7 148.7 L375.6 146.6 L375.2 145.6 L374.2 145.1 L373.1 144.3 L372 144 L369.7 143.4 L368.1 142.7 L366 142.3 L363.2 140.6 L361.8 139.3 L361.2 138.3 L359.8 138.2 L360 139.6 L358.9 138.7 L358.3 137.7 L356.9 137.2 L356.1 138.7 L357.1 140.1 L357.4 141 L358.9 142.3 L361.4 143.3 L363.8 145.5 L367.2 147.3 L368.6 146.9 L369.4 147.4 L371.5 148.8 L373.3 149.3 L375.7 150.3 L376.3 150.9 L376.6 152 L374.8 150.9 L372.9 150.9 L373.3 153.1 L375.2 153.9 L375.9 155.5 L375.2 156 L375.7 158.9 L375 159.4 L374.5 158.4 L374 156.7 L372.4 154.3 L371 153 L370 152.8 L368.7 151.6 L367.2 151.4 L365.7 150.5 L364.2 150.6 L362 149.7 L359.2 148.2 L356.9 146.8 L354.7 144 L353.6 143.9 L351.5 143.3 L350.8 143.9 L350.4 145.5 L348.7 148 L344.3 148.1 L341.7 149.7 L342.3 151.6 L343.2 153.3 L342 155.8 L339.4 157 L339.6 158.1 L338.9 160 L339 162.8 L340.6 164.4 L339.7 166.1 L340 168.3 L338.4 169.2 L337.4 172 L334.3 172.5 L331.9 172.8 L330.6 174.2 L330 175.6 L328.7 175.5 L327.4 174.5 L326.1 172.7 L323.6 172.5 L322.8 173.5 L321.3 173.2 L320 173.7 L319.8 171.1 L319 169.1 L317.8 169 L316.8 167.8 L316.5 165.7 L317.2 164.4 L317 163.1 L316.9 161.1 L316.5 159.8 L315.7 158.7 L315.3 157.6 L314.7 155.4 L313.3 154.1 L316 151.5 L319 151.7 L322.1 151.3 L324.8 151.4 L326.6 151 L330.3 150.5 L330.7 148.5 L328.6 142.4 L325 139.7 L322.8 138.4 L319.1 137.8 L318 135.7 L320.4 134.6 L324.2 134.9 L322 131.7 L324.5 132.6 L327.9 129.6 L327.2 127.2 L328.5 126.3 L329.7 125.5 L330.1 124.6 L329.2 120.3 L330.8 118.7 L332.2 118.4 L333.4 117.4 L334.1 117.9 L334.3 116.3 L333.2 115.4 L332.1 114 L330.4 112.7 L328.4 110.1 L328 108.5 L329.2 108.1 L329.7 106.3 L330.7 107.6 L331.7 109.1 L332.7 109.3 L333.2 110.3 L332.8 112.3 L334.2 113.4 L335 114.4 L337 114.6 L337.7 115.5 L338.8 114.6 L339.1 113.7 L341.6 114.3 L342.9 114.9 L343.3 113.8 L344.5 112 L345.5 110.6 L347.2 110.6 L347.8 111.2 L349.1 110.8 L348.4 109.6 L349.3 108.2 L347.1 106.3 L345.4 104.4 L344.4 102.8 L344.6 101.6 L347.4 103 L348.2 102.6 L346.5 100.7 L345.1 99.3 L343.5 99.2 L342 98 L342.5 96.8 L343.4 96 L344.8 95.9 L345.7 95.4 L345.2 93.7 L343 93.1 L341.6 94.1 L340.9 95.6 L339.8 96.7 L337.8 95.7 L336 95.4 L333.8 93.2 L331 91.4 L330 90.1 L329.2 88.5 L328.3 85.5 L327.1 84.1 L324.7 83.7 L324 84.8 L325 86.5 L326.7 87.6 L327.2 89.8 L327.4 92.3 L330 95.6 L332.4 96.9 L334.8 97.8 L336.4 100.7 L335.7 101.6 L339.1 105.8 L340.4 108.3 L338.5 108.5 L339.5 110.7 L337.9 111.3 L335.5 109 L332 106.6 L328 103.4 L325.8 102.2 L325.4 105.6 L324 106.6 L321 105.8 L318.5 103.3 L313.7 98 L313.7 96.3 L315.3 93.7 L315.4 90.9 L314.3 87.5 L312.1 83 L311.8 81.1 L310.8 78.1 L311.3 76.8 L312.6 76.4 L311.3 74.6 L312.6 74.2 L313.1 73.4 L317 73.7 L319.5 75.1 L319.1 74.3 L321.8 74.7 L323.8 74.2 L329 74.7 L330.8 75.2 L332.9 76.2 L334.1 77.5 L329.5 78.9 L332.6 80 L337.1 82.6 L338.7 82.7 L339.9 82.9 L338.6 81.9 L336.9 81.4 L336.1 80.5 L339.3 80.6 L338.9 79.9 L336.4 78.9 L334.3 76.4 L336.3 76.3 L334.3 75 L332.1 74.4 L330.4 73.3 L328.1 72.6 L330 72.1 L332 72.7 L333.8 74.2 L335.1 74.4 L334.8 73.5 L332.8 72.5 L331.7 71 L329.4 68.6 L331.5 69.6 L330.9 68.5 L329.5 66.8 L331.5 67.1 L329.2 65.9 L327.3 65.6 L326.2 65 L327 64.4 L330.8 64.2 L329 63.4 L327.5 63.2 L325.1 62.7 L322.6 62.1 L321.6 61.8 L318.2 60.4 L315 59.4 L314.2 59 L316.2 58.9 L319.1 59.8 L322.2 60.5 L326.7 61.8 L328.3 62.1 L330.6 62.9 L335.7 65.2 L334.5 64.4 L333.3 63.7 L331.7 63.1 L329.8 62.2 L328.2 61.9 L326 61.1 L324.4 60.9 L320.9 59.7 L318.7 59.4 L315.9 58.4 L313.7 57.9 L315.1 58 L318.3 58.9 L316.4 58.3 L314.5 57.5 L313.6 56.9 L314.6 56.7 L312.4 56.4 L309.1 55.8 L307.7 55.2 L306.8 54.6 L305.5 54.1 L304.3 54 L301.8 53.4 L298.8 52.6 L297.1 52 L294.6 51.3 L292.1 50.7 L291.1 50.4 L289.9 50.3 L288.3 50.1 L286 49.7 L287.2 49.7 L286.2 49.4 Z M284 63.5 L287.4 63.9 L289.2 65.9 L291.2 67.5 L287.9 67.2 L286 66.4 L283 65.5 L280.7 64.5 L281.1 63.8 L282.2 64.1 L282.6 63.2 L284 63.5 Z M226 62.9 L224.2 63.6 L221.3 64.2 L220.4 64 L220.9 62.8 L222 62.4 L223.1 62.3 L224.5 60.9 L226.1 60.6 L227.2 60.4 L228.3 60.1 L227.8 61.1 L227.6 62 L226 62.9 Z M241.4 60.7 L242.8 61.3 L242.5 62.1 L240.7 62.5 L239.3 62.6 L238.4 62.8 L239.4 63 L237.1 63.6 L235.8 63.8 L233.2 64.7 L231.8 64.7 L229.3 64.7 L228.1 65.9 L226.8 66.3 L225.3 66.5 L224.1 66.9 L222.6 67.1 L223.1 67.7 L219.5 68.5 L218.8 67.6 L216.9 67.3 L215.8 66.4 L217.1 65.8 L218.6 65.8 L220.4 64.8 L220.9 65.8 L222 64.8 L223.4 63.9 L224.8 63.9 L225.8 63.5 L226.4 62.9 L227.7 62.2 L228.6 62.6 L230.2 62.6 L228.3 61.8 L229.7 60.7 L231.2 59.9 L232.6 60 L235 59.8 L236.5 59.9 L238.1 59.9 L239.1 60.1 L240.3 60.3 L241.4 60.7 Z M258 61.5 L261 62.5 L260.4 63 L258.6 63.2 L256 63.3 L258 63.4 L259.6 63.9 L260.4 63.4 L261.1 63.9 L260.8 64.8 L261.9 64.2 L264 63.4 L265.7 63.6 L266.5 64.2 L265 65.4 L263.2 66.2 L264.6 66.1 L264.5 67.3 L264.5 68.4 L265.3 70.2 L266.7 71.3 L265.6 71.4 L264.5 72 L266.3 72.9 L267.2 74.3 L266.3 74.6 L268.1 76.1 L266 76.3 L267.4 77 L266 78.1 L264.6 78.1 L266.2 79.4 L266.5 80.3 L264.2 79.5 L265.3 80.5 L267.1 81.7 L268 83.3 L266 83.8 L265 83 L263.3 81.9 L264 83.3 L262.8 84.4 L266 84.4 L267.6 84.4 L264.8 86.4 L261.6 88.2 L257.8 89 L256.3 89 L254.9 89.8 L252.9 92.2 L249.7 93.7 L246.7 94.3 L244.5 94.8 L242.9 96.1 L242.6 97.8 L241.5 99.3 L238.4 101.1 L238.6 103.1 L237.4 105.1 L235.9 107.5 L233.4 107.5 L231.5 105.3 L228.2 105 L227.1 103.5 L226.9 101 L225.6 97.8 L225.5 96.2 L226.3 94.2 L225.5 91.9 L226.8 90.3 L226.4 89.5 L229.1 87.1 L231.3 86.5 L232.3 85.7 L233.4 84.1 L231.6 84.7 L229.6 85.1 L228.6 84.3 L229.4 82.9 L230.5 81.9 L233.5 82.7 L232.3 81.3 L231.8 80.5 L230.6 80.6 L232.4 78.4 L232.5 76.3 L233 74.2 L232.5 73.4 L233.2 72.7 L232 71.4 L230.6 71.1 L228.6 70.8 L226.8 70.6 L226.9 68.7 L229.2 68.6 L230.6 68.7 L228.5 67.8 L228.1 66.9 L229.1 66.4 L232.2 66.2 L235.2 65.9 L236.1 65.4 L235.4 64.6 L236.6 64.2 L239.6 63.5 L241.1 62.8 L242.6 62.7 L244.2 62.6 L245.6 62.8 L247.5 62.6 L248.2 63.2 L249.6 63.9 L248.9 63.1 L251.2 61.8 L252.7 61.9 L253.4 61.4 L254.8 61.3 L258 61.5 Z" fill="url(#land)"/></g>
  <g clip-path="url(#globe)" fill="none" stroke="url(#gold)" stroke-width="1.3" opacity="0.5"><ellipse cx="256" cy="250" rx="204" ry="204"/><ellipse cx="256" cy="250" rx="150" ry="204"/><ellipse cx="256" cy="250" rx="92" ry="204"/><ellipse cx="256" cy="250" rx="32" ry="204"/><ellipse cx="256" cy="250" rx="204" ry="204"/><ellipse cx="256" cy="250" rx="204" ry="150"/><ellipse cx="256" cy="250" rx="204" ry="92"/><ellipse cx="256" cy="250" rx="204" ry="32"/><line x1="256" y1="46" x2="256" y2="454"/><line x1="52" y1="250" x2="460" y2="250"/></g>
  <circle cx="256" cy="250" r="204" fill="none" stroke="url(#gold)" stroke-width="5"/>
  <g filter="url(#glow)"><path d="M218.1 180.4 L222.7 183.3 L227.2 186 L231.7 186.5 L234.1 186.3 L234.6 186.1 L235.9 185.2 L236.3 184.8 L237 184.6 L237.7 184.5 L238.5 184.7 L241.6 187 L242.1 187.4 L242.5 187.9 L244.4 190.4 L246.4 192 L247.4 192.8 L248 193.1 L249.1 193.4 L254.6 194.4 L257 194.9 L258.3 195 L259.8 194.8 L260.6 194.3 L261.5 192.7 L261.8 192.3 L262.5 191.5 L263.7 191 L267.9 191.2 L268.8 191.3 L269.8 191.7 L272.1 193.9 L272.5 194.4 L272.9 194.9 L273.1 195.5 L273.2 196.3 L272.5 201.1 L273.4 206.3 L274.2 208.1 L275.7 210.8 L276.6 212.1 L277 212.6 L280.7 216.1 L281.7 216.5 L282.4 216.6 L283.1 216.4 L284.1 216.1 L285.7 215.6 L294.1 213.5 L294.8 213.4 L299.7 213.5 L307.4 214.6 L308.2 214 L310.9 212.1 L312.3 211.4 L313.4 211.6 L317.2 215.8 L317.4 216.5 L317.1 217.1 L316.8 217.7 L313.7 222.9 L312.9 223.4 L312.1 223.4 L304.3 222.3 L291 220.5 L289.7 220.4 L289.1 220.6 L288.7 221.1 L288 227.5 L288.4 228.4 L288.9 229.2 L290.1 229.3 L291.6 229.2 L294.5 228.9 L295.5 228.6 L298.3 228.1 L299.9 228.1 L300.7 228.1 L301.6 228.1 L302.4 228.3 L303 228.6 L303.5 229 L303.8 229.6 L303.8 230.3 L304 230.9 L304.6 231.3 L305.2 231.6 L311.4 233.6 L315.2 234.2 L316 234.2 L327.5 233.7 L329.1 233 L331.4 233 L332.6 233.6 L333.4 234.2 L340.7 237 L342.8 237.7 L343.4 238 L345.4 239.6 L345.9 240 L347.8 242.5 L351.9 246.5 L353.3 247.8 L355 249.2 L361.3 254 L366.1 257.2 L366.8 257.9 L367.1 258.3 L368 259.7 L368.2 260.3 L368.1 261.1 L367.4 262.7 L360.4 276.4 L359.7 277 L359 277.1 L356.2 277.2 L355.5 277 L354.3 276.4 L353.1 275.7 L352.3 275.2 L351.9 275 L350.9 275.6 L349.4 282.8 L349.1 285.2 L348.8 285.9 L348.3 286.2 L345.5 286.3 L343.4 286 L341.8 285.4 L341.4 284.1 L340.8 282.6 L340.2 281.5 L337.8 277.4 L337.1 276.3 L336.7 275.9 L336.2 275.4 L335.2 274.6 L334.7 274.3 L333.3 273.8 L332.5 273.7 L328.5 273.3 L323.3 274.2 L321.6 273.9 L317.2 273.1 L315.1 271.9 L303.5 271.9 L298.3 272.6 L295.4 273.4 L293.5 272.5 L284.8 270 L281.4 269.7 L279.6 269.7 L273.1 269.1 L271.8 269.5 L271.3 269.8 L269.4 271 L268.4 271.7 L267.9 272.1 L266 272.2 L265.3 272.5 L262.3 277.6 L261.5 278.6 L256.5 284.4 L255.9 284.6 L255.4 284.4 L254.7 284.7 L251.9 285 L246.4 284.5 L242.7 284.2 L241.5 284.2 L240.8 284.8 L237.9 286.2 L236.9 286.5 L236.2 286.7 L235.2 286.8 L232.6 286.1 L232 284.8 L232.5 284.5 L232.2 283.2 L230.1 281.7 L230.9 279.4 L231.2 275.9 L230.2 273.5 L229.7 273.1 L228.7 272.3 L228 272.1 L226.1 271.5 L225.4 271.4 L223.8 271.4 L222.5 272.7 L222.8 273.6 L222.7 274.5 L222.5 275.1 L221.8 275.9 L221.4 276.3 L220.9 276.7 L220.3 277 L213.1 279.3 L208.9 283 L205.8 280.5 L203.3 279.7 L202.6 279.5 L201.7 279.5 L200.9 279.5 L200.1 280 L198.9 282.4 L198.7 283.5 L198.9 284.2 L200.1 287.2 L200.4 287.8 L200.9 288.6 L201.5 289.3 L201.6 290.1 L199.5 294.4 L193.7 303.6 L193.1 304.4 L192.3 305.3 L191.4 306.2 L189.8 307.1 L188.7 309.2 L180.8 323.9 L180 324.5 L179.5 324.9 L178.7 324.6 L166.8 309.9 L164.8 302.4 L164.5 301.7 L164 301 L163.6 300.5 L162.8 299.9 L160.3 297.9 L159.1 297.3 L158.1 296.9 L159.2 293.7 L159.3 293.2 L159 290 L158.2 287.7 L158 286.7 L158.2 286 L161 281 L161.3 280.5 L162.6 278.6 L161.2 278.1 L159.6 277.4 L157.4 276.4 L155.5 275.2 L150.1 271.6 L149.6 271.2 L149.4 270.5 L149.7 269.8 L151 268.9 L150.6 268.1 L150.2 267.6 L147.1 264.1 L144.1 261.2 L143.8 260.7 L145.2 259.5 L145.8 259.2 L148.3 258.8 L148.9 259.2 L149.2 259.8 L149.8 260.2 L152.9 259.7 L154.2 259.3 L154.7 258.9 L156.8 255.9 L157.7 254.5 L158.2 254.2 L158.8 254 L160 253.9 L160.7 253.2 L161.3 251.1 L161.7 249.1 L161.7 248.3 L161.3 243 L161.1 242.4 L157.6 237.9 L159.2 233.7 L165 227.3 L165.9 226.3 L166.2 224.8 L166.5 222.1 L166.6 220.8 L164.7 220.4 L164 220.2 L163 219.8 L162.5 219.4 L161.3 218.4 L159.5 216.6 L160.8 211.8 L162.3 209.2 L162.8 203.7 L162.7 202.9 L162 200.2 L161.8 199.6 L161.2 198.5 L160.9 197.9 L160.6 197.3 L160.1 195.7 L160 194.6 L160.1 192.8 L160.2 191.2 L159.9 190.7 L159.3 189.9 L159 189.5 L160.7 190 L161.2 189.7 L160.4 187.7 L159.5 186 L158.5 185.4 L157.7 185.5 L157.6 184.8 L158 184.3 L164.2 177.5 L168.6 176.6 L169.4 176.5 L172.7 176.5 L175 176.7 L175.7 176.8 L177.7 177.6 L178.7 178 L180.4 179 L182.6 180.1 L183.2 180.3 L189 182 L189.8 181.9 L190.8 181.5 L195.8 180.3 L198.9 178.9 L199.3 178.5 L199.6 177.8 L199.8 177.1 L201.1 176.1 L202.2 175.5 L203.2 175.2 L204.2 175 L205.1 175 L214.6 176.8 L215.2 177.1 L217.1 179.3 L218.1 180.4 Z" fill="url(#goldBright)" stroke="#FFF6D8" stroke-width="2" stroke-linejoin="round"/><g><polygon points="256.0 216.0 264.5 247.5 296.0 256.0 264.5 264.5 256.0 296.0 247.5 264.5 216.0 256.0 247.5 247.5" fill="url(#goldBright)"/><polygon points="256.0 230.0 261.7 250.3 282.0 256.0 261.7 261.7 256.0 282.0 250.3 261.7 230.0 256.0 250.3 250.3" fill="#9a7320"/><circle cx="256" cy="256" r="6" fill="#FFF6D8"/></g></g>
  <g fill="none" stroke="url(#gold)" stroke-linecap="round">
    <path d="M330 150 Q400 120 470 92" stroke-width="3" stroke-dasharray="2 11" opacity="0.85"/>
    <path d="M150 360 Q100 390 64 420" stroke-width="3" stroke-dasharray="2 11" opacity="0.8"/></g>
  <g fill="url(#goldBright)" stroke="#7a5a14" stroke-width="0.5">
    <g transform="translate(470 92) rotate(-32) scale(1.6)"><path d="M21 16v-2l-8-5V3.5c0-.83-.67-1.5-1.5-1.5S10 2.67 10 3.5V9l-8 5v2l8-2.5V19l-2 1.5V22l3.5-1 3.5 1v-1.5L13 19v-5.5z"/></g>
    <g transform="translate(64 420) rotate(150) scale(1.5)"><path d="M21 16v-2l-8-5V3.5c0-.83-.67-1.5-1.5-1.5S10 2.67 10 3.5V9l-8 5v2l8-2.5V19l-2 1.5V22l3.5-1 3.5 1v-1.5L13 19v-5.5z"/></g>
    <g transform="translate(476 268) rotate(60) scale(1.15)"><path d="M21 16v-2l-8-5V3.5c0-.83-.67-1.5-1.5-1.5S10 2.67 10 3.5V9l-8 5v2l8-2.5V19l-2 1.5V22l3.5-1 3.5 1v-1.5L13 19v-5.5z"/></g></g>
  <text x="256" y="582" text-anchor="middle" font-family="'Playfair Display', Georgia, serif" font-size="74" font-weight="700" letter-spacing="4" fill="url(#gold)">MERIDIAN</text>
  <text x="256" y="610" text-anchor="middle" font-family="Inter, system-ui, sans-serif" font-size="16.5" font-weight="500" letter-spacing="6" fill="#C8A24B" opacity="0.85">LUXURY REAL ESTATE · DR</text>
</svg>